<?xml version="1.0" encoding="utf-8"?>
<!-- Generator: Adobe Illustrator 24.1.3, SVG Export Plug-In . SVG Version: 6.00 Build 0)  -->
<svg version="1.1" id="Layer_1" xmlns="http://www.w3.org/2000/svg" xmlns:xlink="http://www.w3.org/1999/xlink" x="0px" y="0px"
	 viewBox="0 0 1280 809" style="enable-background:new 0 0 1280 809;" xml:space="preserve">
<style type="text/css">
	.st0{stroke:#F8EF2A;stroke-width:25;stroke-miterlimit:10;}
</style>
<g transform="translate(0.000000,809.000000) scale(0.100000,-0.100000)">
	<path class="st0" d="M1254.8,7824.6c0-19.4,4.8-29.1,14.5-29.1c17.4,0,18.4-6.8,1-55.2c-10.7-31-10.7-47.5,0-99.7
		c18.4-90.1,18.4-93.9-32.9-179.2c-33.9-56.2-52.3-78.4-68.8-80.4c-21.3-2.9-22.3-1.9-15.5,38.7c3.9,23.2,13.6,53.3,20.3,67.8
		c14.5,27.1,17.4,74.6,7.7,112.3c-4.8,15.5-13.6,21.3-32.9,21.3c-14.5,0-33.9,8.7-43.6,19.4s-27.1,19.4-37.8,19.4
		c-11.6,0-65.9,31-122,67.8c-56.2,36.8-104.6,67.8-108.5,67.8c-16.5,0-25.2-70.7-15.5-120.1c7.7-36.8,7.7-65.9,1-103.6
		c-8.7-42.6-7.7-57.1,3.9-76.5c12.6-22.3,12.6-29.1,0-58.1c-13.6-32.9-12.6-34.9,16.5-60c28.1-24.2,29.1-26.1,8.7-27.1
		c-11.6,0-26.1-9.7-32.9-21.3c-9.7-17.4-7.7-23.2,10.7-36.8c21.3-16.5,21.3-17.4,4.8-51.3c-9.7-21.3-23.2-35.8-33.9-35.8
		c-13.6,0-18.4-11.6-23.2-54.2c-10.7-91-223.7-653.7-284.7-752.5c-12.6-19.4-31-40.7-40.7-45.5s-20.3-23.2-24.2-40.7
		c-3.9-17.4-20.3-45.5-35.8-62.9c-29.1-30-29.1-32-18.4-74.6c6.8-30,7.7-51.3,1-68.8c-5.8-13.6-9.7-88.1-9.7-165.6v-140.4
		l-36.8-62.9c-19.4-34.9-56.2-95.9-81.3-135.6c-57.1-89.1-58.1-105.6-11.6-247c32-99.7,32.9-108.5,18.4-124.9
		c-8.7-9.7-24.2-39.7-34.9-66.8c-17.4-46.5-17.4-51.3-2.9-74.6c15.5-22.3,14.5-25.2-1-42.6c-15.5-17.4-15.5-20.3,5.8-55.2
		c12.6-20.3,36.8-56.2,54.2-79.4c29.1-38.7,32-48.4,32-109.4c0-62,2.9-71.7,30-106.5l31-38.7l22.3,28.1
		c11.6,14.5,23.2,25.2,25.2,22.3c7.7-8.7,33.9-164.6,28.1-164.6c-2.9,0-14.5,6.8-24.2,14.5c-10.7,7.7-29.1,14.5-41.6,14.5
		c-21.3,0-22.3-3.9-22.3-64.9v-63.9l53.3-56.2c61-63.9,68.8-97.8,30-133.6c-11.6-11.6-28.1-38.7-33.9-61
		c-11.6-38.7-11.6-39.7,21.3-74.6c20.3-20.3,38.7-53.3,45.5-78.4c18.4-70.7,63.9-161.7,86.2-173.4c22.3-12.6,28.1-57.1,9.7-75.5
		c-7.7-7.7-4.8-19.4,13.6-43.6l24.2-32l-23.2-62.9l-23.2-62.9l32-26.1c16.5-14.5,48.4-31,69.7-36.8c21.3-5.8,72.6-26.1,115.2-46.5
		c66.8-31,78.4-40.7,93-74.6c21.3-49.4,32-58.1,93.9-72.6c59.1-13.6,72.6-27.1,75.5-75.5c1.9-32,4.8-35.8,29.1-34.9
		c20.3,1,35.8-10.7,71.7-54.2c88.1-105.6,104.6-145.3,112.3-269.2c4.8-67.8,11.6-111.4,18.4-113.3c10.7-3.9,533.6-53.3,561.7-53.3
		c10.7,0,15.5-8.7,15.5-26.1c0-22.3,9.7-32.9,56.2-62c30-18.4,222.7-139.5,428.1-267.3l372.9-233.4l343.8-44.5
		c188.8-24.2,349.6-44.5,355.4-44.5c6.8,0,14.5,23.2,18.4,58.1c3.9,32,9.7,61,14.5,63.9s92-3.9,194.7-15.5
		c211.1-22.3,269.2-40.7,269.2-85.2c0-17.4,43.6-69.7,174.3-205.3c95.9-99.7,174.3-188.8,174.3-198.5c0-8.7,8.7-29.1,20.3-44.5
		c16.5-23.2,18.4-36.8,13.6-67.8c-12.6-73.6,7.7-97.8,179.2-218.9c85.2-60,162.7-109.4,172.4-109.4c28.1,0,84.3,66.8,113.3,137.5
		c28.1,64.9,40.7,75.5,88.1,75.5c10.7,0,28.1,8.7,37.8,19.4l17.4,19.4l23.2-21.3c19.4-17.4,37.8-23.2,102.7-27.1
		c89.1-5.8,142.4-29.1,142.4-62.9c0-20.3,58.1-82.3,112.3-119.1c21.3-14.5,32.9-32,37.8-57.1c13.6-74.6,80.4-216,130.7-275
		c26.1-32.9,48.4-65.9,48.4-73.6c0-26.1,38.7-70.7,62.9-70.7c26.1,0,43.6-38.7,43.6-96.8c0-46.5,12.6-84.3,61-183l39.7-81.3
		l102.7-47.5c56.2-26.1,136.6-56.2,180.1-64.9c44.5-10.7,94.9-29.1,117.2-43.6c33.9-23.2,42.6-25.2,59.1-14.5
		c16.5,9.7,22.3,9.7,34.9,0c26.1-22.3,19.4,28.1-7.7,56.2c-14.5,16.5-34.9,62.9-53.3,126.9c-28.1,96.8-28.1,104.6-15.5,143.3
		c11.6,31,11.6,45.5,3.9,59.1c-9.7,13.6-6.8,23.2,11.6,48.4c18.4,24.2,23.2,43.6,23.2,86.2c0,53.3,1,55.2,26.1,58.1
		c30,3.9,56.2,33.9,56.2,66.8c0,23.2,26.1,35.8,52.3,26.1c11.6-4.8,17.4,1,21.3,23.2c4.8,23.2,12.6,30,36.8,34.9
		c51.3,10.7,61,20.3,40.7,43.6c-17.4,19.4-17.4,20.3,17.4,35.8c29.1,14.5,37.8,15.5,58.1,3.9c21.3-10.7,32-8.7,104.6,29.1
		c131.7,66.8,162.7,87.2,168.5,112.3c2.9,12.6,21.3,36.8,40.7,53.3c29.1,26.1,32.9,32.9,23.2,48.4c-19.4,31-13.6,55.2,17.4,71.7
		c32.9,17.4,48.4,12.6,48.4-13.6c0-9.7,7.7-20.3,17.4-22.3c9.7-2.9,93.9,13.6,186.9,36.8c93,23.2,179.2,42.6,192.7,41.6
		c13.6,0,78.4-12.6,145.3-28.1c66.8-14.5,124-25.2,127.8-23.2c4.8,2.9,7.7,17.4,7.7,32c0,35.8,32,51.3,67.8,33.9
		c13.6-6.8,32-14.5,41.6-17.4c9.7-2.9,24.2-18.4,33.9-33.9c11.6-21.3,26.1-31,50.4-34.9c24.2-3.9,40.7-15.5,56.2-37.8
		c13.6-20.3,38.7-38.7,65.9-49.4c42.6-16.5,42.6-16.5,72.6,8.7c34.9,29.1,82.3,32.9,101.7,8.7c12.6-16.5,14.5-16.5,28.1,1
		c7.7,10.7,14.5,31,14.5,45.5c0,33.9,42.6,45.5,62,16.5c7.7-10.7,36.8-30,63.9-42.6c30-13.6,52.3-31,55.2-42.6
		c6.8-23.2,2.9-24.2,55.2,1.9l43.6,21.3l-79.4,47.5c-43.6,26.1-83.3,50.4-87.2,55.2c-17.4,16.5,68.8,125.9,98.8,125.9
		c10.7,0,1.9,36.8-9.7,44.5c-3.9,1.9-32.9-11.6-62.9-32c-52.3-34.9-55.2-35.8-67.8-17.4c-7.7,9.7-13.6,21.3-13.6,26.1
		c0,10.7-65.9,9.7-104.6-1c-28.1-8.7-32-6.8-45.5,17.4c-11.6,24.2-11.6,30,1,48.4c18.4,25.2,53.3,26.1,141.4,3.9l63.9-16.5l93,43.6
		c89.1,41.6,95.9,43.6,148.2,36.8c42.6-5.8,59.1-4.8,70.7,5.8c8.7,7.7,24.2,11.6,33.9,8.7c15.5-3.9,23.2,3.9,36.8,39.7
		c19.4,46.5,35.8,57.1,35.8,23.2c0-36.8,29.1-84.3,55.2-91c19.4-4.8,31,0,50.4,18.4c14.5,14.5,37.8,25.2,50.4,25.2
		c13.6,0,32.9,8.7,41.6,18.4c16.5,18.4,32,19.4,88.1,6.8c18.4-3.9,45.5-1,71.7,8.7c52.3,18.4,49.4,18.4,49.4-4.8
		c0-12.6,6.8-19.4,18.4-19.4c10.7,0,43.6-9.7,73.6-21.3c44.5-16.5,59.1-18.4,73.6-9.7c14.5,9.7,24.2,8.7,47.5-2.9
		c30-15.5,35.8-28.1,19.4-38.7c-17.4-10.7-10.7-21.3,24.2-42.6c25.2-14.5,33.9-26.1,33.9-45.5c0-19.4,2.9-23.2,12.6-15.5
		c5.8,5.8,43.6,26.1,83.3,45.5c39.7,20.3,89.1,52.3,111.4,72.6c85.2,79.4,169.5,53.3,315.7-98.8c69.7-71.7,87.2-85.2,113.3-85.2
		c27.1,0,33.9-5.8,65.9-63.9c43.6-78.4,50.4-120.1,30-190.8c-19.4-64.9-19.4-112.3-1-136.6c16.5-22.3,43.6-13.6,43.6,13.6
		c0,25.2,30,26.1,45.5,0c15.5-23.2,6.8-71.7-17.4-93c-16.5-14.5-16.5-18.4-2.9-43.6c7.7-15.5,18.4-28.1,23.2-28.1
		c4.8,0,24.2-23.2,42.6-52.3c29.1-44.5,37.8-52.3,72.6-58.1c34.9-4.8,39.7-8.7,39.7-32.9c0-17.4,16.5-44.5,48.4-82.3
		c27.1-31,51.3-68.8,54.2-82.3c2.9-14.5,6.8-31,8.7-37.8c1.9-5.8,20.3-13.6,40.7-17.4c40.7-6.8,82.3-38.7,123-93.9
		c14.5-20.3,36.8-39.7,49.4-42.6c17.4-3.9,24.2-12.6,24.2-29.1c0-12.6,3.9-23.2,7.7-23.2c25.2,0,99.7,33.9,125.9,56.2
		c28.1,25.2,29.1,28.1,22.3,74.6c-7.7,43.6-5.8,51.3,16.5,80.4c23.2,31,24.2,34.9,12.6,80.4c-9.7,37.8-9.7,57.1,0,94.9
		c14.5,58.1,7.7,78.4-69.7,194.7c-30,45.5-63.9,110.4-75.5,145.3c-15.5,47.5-27.1,67.8-48.4,80.4c-22.3,12.6-29.1,25.2-33.9,63.9
		c-3.9,27.1-3.9,59.1,0,72.6c7.7,33.9-62.9,136.6-106.5,155c-21.3,8.7-34.9,22.3-38.7,39.7c-3.9,13.6-30,53.3-59.1,88.1
		c-49.4,58.1-53.3,65.9-53.3,111.4c0,38.7-4.8,56.2-24.2,78.4c-13.6,15.5-24.2,40.7-24.2,55.2c0,13.6-6.8,35.8-15.5,47.5
		c-7.7,11.6-21.3,69.7-29.1,131.7c-13.6,101.7-12.6,116.2,1.9,167.5c16.5,58.1,51.3,134.6,81.3,177.2c8.7,13.6,19.4,37.8,23.2,53.3
		c12.6,49.4,79.4,126.9,169.5,194.7c54.2,39.7,90.1,74.6,96.8,91c4.8,14.5,22.3,44.5,38.7,67.8c15.5,22.3,33.9,56.2,40.7,75.5
		c17.4,54.2,71.7,140.4,104.6,164.6c16.5,11.6,52.3,26.1,80.4,32c65.9,13.6,79.4,27.1,98.8,93.9c11.6,40.7,32,74.6,78.4,129.8
		c53.3,62.9,70.7,77.5,118.2,94.9c31,11.6,65.9,30,78.4,40.7c26.1,25.2,29.1,52.3,4.8,41.6c-91-38.7-119.1-41.6-136.6-14.5
		c-10.7,17.4-9.7,19.4,10.7,19.4c48.4,0,99.8,71.7,68.8,97.8c-7.7,5.8-13.6,21.3-13.6,33.9c0,28.1,37.8,42.6,50.4,19.4
		c13.6-24.2,54.2-18.4,86.2,12.6c24.2,25.2,28.1,35.8,28.1,82.3c0,58.1-9.7,66.8-32.9,32.9l-15.5-21.3l-23.2,22.3
		c-22.3,21.3-24.2,21.3-68.8,6.8c-24.2-8.7-49.4-13.6-54.2-10.7c-22.3,14.5-2.9,35.8,68.8,78.4c66.8,38.7,77.5,49.4,77.5,71.7
		c0,14.5-6.8,32-14.5,38.7c-7.7,6.8-17.4,29.1-20.3,49.4c-9.7,57.1-19.4,61-128.8,54.2c-29.1-1.9-33.9,1.9-40.7,25.2
		c-5.8,22.3-3.9,26.1,11.6,26.1c19.4,0,25.2,14.5,8.7,24.2c-15.5,9.7-10.7,41.6,6.8,52.3c16.5,8.7,16.5,10.7,1,37.8
		c-9.7,16.5-17.4,41.6-17.4,57.1c0,62-32.9,99.8-85.2,99.8c-10.7,0-29.1,8.7-41.6,19.4c-23.2,19.4-23.2,19.4-4.8,33.9
		c10.7,7.7,31,14.5,46.5,14.5c14.5,0,27.1,1.9,27.1,4.8c0,1.9-10.7,32.9-24.2,68.8c-19.4,51.3-24.2,82.3-24.2,153
		c0,84.3,1,90.1,30,124.9c16.5,19.4,37.8,35.8,49.4,35.8c16.5,0,18.4-4.8,12.6-31c-2.9-17.4-12.6-48.4-21.3-67.8
		c-13.6-32-13.6-39.7-1-72.6c8.7-20.3,20.3-68.8,27.1-106.5l12.6-70.7l47.5-5.8c45.5-5.8,46.5-6.8,46.5-39.7c0-32,1-32.9,32-30
		c31,2.9,31,2.9,27.1-35.8c-1-20.3-6.8-48.4-11.6-61c-4.8-12.6-8.7-42.6-8.7-67.8l1-45.5l24.2,47.5c13.6,25.2,31,77.5,38.7,115.2
		c7.7,36.8,20.3,76.5,28.1,88.1c10.7,13.6,14.5,46.5,14.5,105.6v86.2l-34.9,32c-19.4,17.4-41.6,37.8-49.4,45.5
		c-7.7,6.8-33.9,42.6-57.1,78.4c-32,49.4-40.7,72.6-36.8,90.1c2.9,12.6,8.7,23.2,11.6,23.2s20.3-17.4,38.7-38.7
		c18.4-22.3,50.4-48.4,70.7-58.1c20.3-10.7,41.6-28.1,48.4-39.7l10.7-20.3l24.2,23.2c13.6,11.6,43.6,62.9,66.8,112.3
		c41.6,89.1,42.6,92,42.6,194.7c0,112.3-8.7,134.6-48.4,124c-11.6-2.9-19.4,0-19.4,5.8c0,23.2,17.4,36.8,54.2,42.6
		c20.3,2.9,64.9,22.3,98.8,42.6c32.9,20.3,86.2,48.4,118.2,62.9c40.7,18.4,63.9,35.8,82.3,62.9l24.2,37.8h-30
		c-17.4,0-54.2-14.5-85.2-32.9c-93.9-56.2-185.9-95.9-196.6-85.2c-23.2,23.2,90.1,134.6,171.4,170.4c27.1,11.6,72.6,27.1,101.7,32.9
		c29.1,6.8,79.4,26.1,111.4,44.5c55.2,30,58.1,33.9,61,71.7c1.9,25.2,8.7,40.7,19.4,45.5c8.7,2.9,17.4,1.9,19.4-2.9
		c1-4.8,8.7-17.4,16.5-27.1c13.6-17.4,15.5-16.5,44.5,18.4c17.4,20.3,42.6,42.6,58.1,50.4c24.2,13.6,28.1,12.6,36.8-1.9
		c8.7-15.5,10.7-15.5,27.1-1c9.7,8.7,29.1,20.3,44.5,26.1c21.3,8.7,26.1,16.5,26.1,42.6c0,33.9-24.2,93.9-38.7,93.9
		c-18.4,0-30-28.1-20.3-47.5c18.4-32.9,12.6-56.2-13.6-62.9c-32-7.7-54.2,4.8-92,52.3c-23.2,29.1-37.8,38.7-59.1,38.7
		c-38.7,0-43.6,19.4-21.3,81.3c16.5,44.5,17.4,55.2,6.8,74.6c-19.4,35.8-16.5,74.6,15.5,181.1c21.3,70.7,26.1,103.6,20.3,120.1
		c-11.6,31,26.1,80.4,56.2,72.6c13.6-2.9,24.2,1.9,33.9,17.4c8.7,12.6,29.1,24.2,48.4,28.1c31,5.8,34.9,11.6,59.1,74.6
		c21.3,55.2,32,70.7,53.3,78.4c14.5,4.8,40.7,26.1,58.1,47.5c25.2,32,35.8,37.8,55.2,33.9c18.4-4.8,34.9,3.9,84.3,47.5
		c33.9,30,66.8,64.9,73.6,77.5s23.2,27.1,36.8,32l25.2,7.7l-22.3,22.3c-11.6,11.6-25.2,31-29.1,42.6c-5.8,14.5-22.3,25.2-52.3,32.9
		c-35.8,9.7-45.5,17.4-57.1,46.5c-8.7,23.2-27.1,42.6-51.3,56.2c-41.6,23.2-53.3,52.3-113.3,265.4l-30,109.4l-62,39.7l-61,39.7
		l-62.9-39.7c-33.9-22.3-68.8-39.7-76.5-39.7c-19.4,0-40.7,29.1-36.8,50.4c2.9,13.6-1,18.4-13.6,15.5
		c-26.1-4.8-102.7-258.6-94.9-314.7c2.9-22.3,1-49.4-4.8-59.1c-6.8-12.6-6.8-38.7,0-78.4c9.7-64.9-1-127.8-27.1-157.9
		c-9.7-10.7-13.6-27.1-9.7-44.5c8.7-41.6-15.5-70.7-51.3-63.9c-42.6,8.7-87.2-38.7-87.2-92c0-28.1-4.8-39.7-16.5-43.6
		c-9.7-1.9-158.8-35.8-332.2-74.6c-235.3-52.3-320.6-75.5-338-90.1c-54.2-48.4-156.9-173.4-161.7-198.5
		c-3.9-15.5-25.2-46.5-48.4-69.7s-42.6-47.5-42.6-55.2s10.7-26.1,24.2-42.6c16.5-19.4,24.2-40.7,24.2-63.9
		c0-53.3-88.1-133.6-191.8-175.3c-76.5-31-78.4-31-104.6-13.6c-30,19.4-43.6,18.4-160.8-7.7l-85.2-20.3l-9.7-37.8
		c-9.7-34.9-7.7-40.7,14.5-70.7c42.6-56.2,30-86.2-84.3-194.7c-53.3-50.4-104.6-92-115.2-92c-9.7,0-28.1-13.6-39.7-30
		c-24.2-32.9-166.6-124.9-192.7-124.9c-8.7,0-38.7-26.1-66.8-58.1c-44.5-52.3-51.3-56.2-72.6-46.5c-18.4,8.7-29.1,4.8-67.8-21.3
		c-40.7-28.1-48.4-30-94.9-24.2c-28.1,3.9-74.6,17.4-103.6,31c-31,13.6-62,21.3-74.6,17.4c-20.3-4.8-22.3-1.9-22.3,29.1
		c0,20.3,10.7,50.4,24.2,72.6c13.6,21.3,24.2,47.5,24.2,59.1c0,10.7,8.7,31,18.4,44.5c10.7,12.6,22.3,42.6,26.1,66.8
		c4.8,36.8,9.7,42.6,29.1,42.6c12.6,0,23.2,2.9,23.2,7.7c0,3.9,4.8,32.9,9.7,64.9c8.7,55.2,7.7,64.9-30,177.2
		c-37.8,112.3-41.6,121.1-72.6,133.6c-17.4,7.7-38.7,13.6-45.5,13.6c-11.6,0-56.2-51.3-118.2-133.6c-18.4-24.2-61,3.9-67.8,45.5
		c-5.8,32.9-1.9,39.7,37.8,80.4l44.5,43.6v81.3c-1,52.3-5.8,90.1-14.5,105.6c-16.5,28.1-19.4,83.3-4.8,92c4.8,2.9,9.7,9.7,9.7,13.6
		c0,17.4-80.4,60-122,65.9c-27.1,3.9-52.3,14.5-64.9,27.1c-11.6,12.6-44.5,29.1-72.6,36.8l-50.4,14.5l-34.9-42.6
		c-26.1-32-33.9-48.4-29.1-64.9c3.9-16.5-1-29.1-18.4-45.5c-17.4-16.5-24.2-32.9-24.2-58.1c0-35.8-7.7-49.4-45.5-81.3
		c-21.3-17.4-23.2-17.4-40.7-1.9c-38.7,34.9-78.4-18.4-89.1-120.1c-3.9-34.9-10.7-91-13.6-125.9c-7.7-69.7,14.5-166.6,59.1-253.7
		c26.1-52.3,30-115.2,12.6-237.3c-14.5-104.6-67.8-193.7-137.5-234.4l-50.4-29.1l-37.8,21.3c-30,17.4-41.6,31-54.2,68.8
		c-8.7,26.1-26.1,55.2-38.7,65.9c-18.4,14.5-23.2,29.1-26.1,73.6c-1,30-11.6,104.6-23.2,164.6c-18.4,96.8-19.4,114.3-7.7,150.1
		c6.8,22.3,11.6,68.8,9.7,105.6c-2.9,56.2,0,68.8,22.3,100.7c18.4,27.1,25.2,50.4,25.2,82.3c0,30,10.7,67.8,32.9,116.2
		c32,69.7,51.3,134.6,40.7,134.6c-2.9,0-19.4-20.3-35.8-45.5c-17.4-26.1-49.4-63.9-71.7-85.2c-21.3-21.3-45.5-48.4-53.3-60
		c-9.7-15.5-18.4-19.4-28.1-13.6c-21.3,13.6-4.8,59.1,46.5,129.8c26.1,35.8,50.4,76.5,53.3,91c3.9,14.5,17.4,46.5,29.1,70.7
		c12.6,24.2,26.1,62,30,85.2c4.8,31,10.7,40.7,25.2,40.7c12.6,0,18.4-6.8,18.4-21.3l1-22.3l17.4,22.3c23.2,27.1,49.4,28.1,49.4,1.9
		c0-29.1,29.1-23.2,41.6,8.7c8.7,23.2,16.5,29.1,50.4,32c24.2,2.9,57.1,17.4,82.3,35.8c35.8,26.1,49.4,30,101.7,30
		c47.5,0,63.9-3.9,77.5-19.4c16.5-18.4,17.4-18.4,36.8,5.8c17.4,23.2,23.2,24.2,73.6,18.4c42.6-4.8,63.9-1.9,97.8,12.6
		c37.8,16.5,40.7,20.3,24.2,26.1c-10.7,3.9-53.3,20.3-94.9,35.8c-62.9,24.2-83.3,28.1-123,22.3c-45.5-6.8-48.4-5.8-58.1,19.4
		c-4.8,13.6-9.7,35.8-9.7,49.4c0,27.1-5.8,28.1-55.2,9.7c-20.3-7.7-66.8-19.4-104.6-25.2c-51.3-8.7-81.3-20.3-123-49.4
		c-54.2-36.8-55.2-37.8-128.8-32.9c-65.9,3.9-77.5,7.7-114.3,36.8c-51.3,41.6-103.6,59.1-157.9,51.3c-31-3.9-40.7-1.9-38.7,6.8
		c1.9,5.8,9.7,32.9,15.5,58.1c9.7,33.9,22.3,54.2,51.3,78.4l38.7,32l-42.6,6.8c-37.8,5.8-44.5,3.9-57.1-15.5
		c-31-48.4-140.4-137.5-209.2-169.5c-31-15.5-79.4-45.5-107.5-67.8c-48.4-37.8-52.3-39.7-89.1-30c-27.1,6.8-48.4,6.8-69.7-1
		c-17.4-5.8-34.9-10.7-38.7-10.7c-12.6,0-10.7,65.9,1.9,73.6c7.7,4.8,6.8,9.7-3.9,15.5c-11.6,5.8-38.7-2.9-93.9-31
		c-73.6-36.8-80.4-38.7-116.2-28.1c-21.3,6.8-38.7,15.5-38.7,19.4c0,3.9,45.5,50.4,100.7,102.7c67.8,63.9,147.2,125.9,242.1,186.9
		c77.5,50.4,140.4,94.9,140.4,98.8c1.9,12.6-60,19.4-125.9,12.6c-55.2-5.8-71.7-3.9-92,9.7c-24.2,15.5-28.1,15.5-97.8-9.7
		c-63.9-22.3-76.5-24.2-107.5-13.6c-19.4,5.8-47.5,21.3-62,33.9c-14.5,11.6-34.9,19.4-44.5,17.4c-11.6-3.9-27.1,6.8-47.5,32
		c-27.1,34.9-34.9,38.7-103.6,49.4c-56.2,8.7-84.3,8.7-116.2,0c-38.7-9.7-47.5-8.7-96.8,14.5c-41.6,20.3-59.1,24.2-77.5,16.5
		c-33.9-12.6-52.3,12.6-53.3,72.6c-1,79.4-12.6,106.5-45.5,109.4c-27.1,2.9-30,0-37.8-38.7l-9.7-41.6l-193.7-9.7
		c-254.7-13.6-1170.8,13.6-1472,42.6c-448.4,43.6-912.3,100.7-1341.3,165.6c-247.9,37.8-535.5,81.3-640.1,97.8
		c-216.9,32.9-1259,262.4-1554.4,342.8c-106.5,29.1-199.5,53.3-205.3,53.3C1259.6,7853.6,1254.8,7841,1254.8,7824.6z"/>
</g>
</svg>
